HIERARCHY
ROOT Hips
{
	OFFSET 0.00000 0.00000 0.00000
	CHANNELS 6 Xposition Yposition Zposition Zrotation Yrotation Xrotation 
	JOINT LHipJoint
	{
		OFFSET 0 0 0
		CHANNELS 3 Zrotation Yrotation Xrotation
		JOINT LeftUpLeg
		{
			OFFSET 1.81424 -1.42316 1.18090
			CHANNELS 3 Zrotation Yrotation Xrotation
			JOINT LeftLeg
			{
				OFFSET 2.15837 -5.93008 0.00000
				CHANNELS 3 Zrotation Yrotation Xrotation
				JOINT LeftFoot
				{
					OFFSET 2.51759 -6.91701 0.00000
					CHANNELS 3 Zrotation Yrotation Xrotation
					JOINT LeftToeBase
					{
						OFFSET 0.18318 -0.50327 1.95113
						CHANNELS 3 Zrotation Yrotation Xrotation
						End Site
						{
							OFFSET 0.00000 -0.00000 1.01524
						}
					}
				}
			}
		}
	}
	JOINT RHipJoint
	{
		OFFSET 0 0 0
		CHANNELS 3 Zrotation Yrotation Xrotation
		JOINT RightUpLeg
		{
			OFFSET -1.43917 -1.42316 1.18090
			CHANNELS 3 Zrotation Yrotation Xrotation
			JOINT RightLeg
			{
				OFFSET -2.25237 -6.18833 0.00000
				CHANNELS 3 Zrotation Yrotation Xrotation
				JOINT RightFoot
				{
					OFFSET -2.46496 -6.77243 0.00000
					CHANNELS 3 Zrotation Yrotation Xrotation
					JOINT RightToeBase
					{
						OFFSET -0.26285 -0.72219 1.76148
						CHANNELS 3 Zrotation Yrotation Xrotation
						End Site
						{
							OFFSET -0.00000 -0.00000 0.95109
						}
					}
				}
			}
		}
	}
	JOINT LowerBack
	{
		OFFSET 0 0 0
		CHANNELS 3 Zrotation Yrotation Xrotation
		JOINT Spine
		{
			OFFSET -0.08725 1.93754 -0.28890
			CHANNELS 3 Zrotation Yrotation Xrotation
			JOINT Spine1
			{
				OFFSET 0.01195 1.94849 0.05967
				CHANNELS 3 Zrotation Yrotation Xrotation
				JOINT Neck
				{
					OFFSET 0 0 0
					CHANNELS 3 Zrotation Yrotation Xrotation
					JOINT Neck1
					{
						OFFSET 0.02762 1.60124 0.34160
						CHANNELS 3 Zrotation Yrotation Xrotation
						JOINT Head
						{
							OFFSET -0.04785 1.66713 -0.24070
							CHANNELS 3 Zrotation Yrotation Xrotation
							End Site
							{
								OFFSET -0.02188 1.68591 -0.11959
							}
						}
					}
				}
				JOINT LeftShoulder
				{
					OFFSET 0 0 0
					CHANNELS 3 Zrotation Yrotation Xrotation
					JOINT LeftArm
					{
						OFFSET 2.59610 1.78696 -0.28854
						CHANNELS 3 Zrotation Yrotation Xrotation
						JOINT LeftForeArm
						{
							OFFSET 5.17853 -0.00000 0.00000
							CHANNELS 3 Zrotation Yrotation Xrotation
							JOINT LeftHand
							{
								OFFSET 3.40399 -0.00000 -0.00000
								CHANNELS 3 Zrotation Yrotation Xrotation
								JOINT LeftFingerBase
								{
									OFFSET 0 0 0
									CHANNELS 3 Zrotation Yrotation Xrotation
									JOINT LeftHandIndex1
									{
										OFFSET 0.70896 -0.00000 -0.00000
										CHANNELS 3 Zrotation Yrotation Xrotation
										End Site
										{
											OFFSET 0.57159 -0.00000 -0.00000
										}
									}
								}
								JOINT LThumb
								{
									OFFSET 0 0 0
									CHANNELS 3 Zrotation Yrotation Xrotation
									End Site
									{
										OFFSET 0.58031 -0.00000 0.58031
									}
								}
							}
						}
					}
				}
				JOINT RightShoulder
				{
					OFFSET 0 0 0
					CHANNELS 3 Zrotation Yrotation Xrotation
					JOINT RightArm
					{
						OFFSET -2.87749 1.55486 -0.73085
						CHANNELS 3 Zrotation Yrotation Xrotation
						JOINT RightForeArm
						{
							OFFSET -5.42351 -0.00000 -0.00000
							CHANNELS 3 Zrotation Yrotation Xrotation
							JOINT RightHand
							{
								OFFSET -3.42066 -0.00000 -0.00000
								CHANNELS 3 Zrotation Yrotation Xrotation
								JOINT RightFingerBase
								{
									OFFSET 0 0 0
									CHANNELS 3 Zrotation Yrotation Xrotation
									JOINT RightHandIndex1
									{
										OFFSET -0.74361 -0.00000 -0.00000
										CHANNELS 3 Zrotation Yrotation Xrotation
										End Site
										{
											OFFSET -0.59952 -0.00000 -0.00000
										}
									}
								}
								JOINT RThumb
								{
									OFFSET 0 0 0
									CHANNELS 3 Zrotation Yrotation Xrotation
									End Site
									{
										OFFSET -0.60867 -0.00000 0.60867
									}
								}
							}
						}
					}
				}
			}
		}
	}
}
MOTION
Frames: 13
Frame Time: .0083333
10.6637 8.6160 -0.0123 66.3672 85.6508 100.7910 0.0000 0.0000 0.0000 17.2736 48.0094 -82.1237 34.7909 13.6155 138.2815 -3.8809 -36.7157 -4.6755 0.5244 -4.6409 -12.8870 0.0000 0.0000 0.0000 5.7491 -57.1816 -87.0504 -37.2721 -10.2409 150.2395 -0.7176 21.0850 -19.9743 -0.0100 0.6467 -1.7772 -3.8972 1.7299 33.6264 -3.6334 1.3297 7.7795 -2.3032 1.0366 -8.5301 5.9719 3.4905 -22.4580 -6.5025 4.0786 12.7798 -2.6102 1.5857 7.8654 -0.0000 -0.0000 0.0000 -51.2036 -60.6077 47.8676 17.7769 -27.8706 -4.4445 -0.0000 0.0000 -34.3665 27.3280 -26.4023 -12.9412 -7.1250 0.0000 -0.0000 -1.5604 0.7918 1.5393 -0.0000 -0.0000 0.0000 70.3479 69.8437 33.2485 -13.8230 22.4812 -2.7601 0.0000 -0.0000 -2.1730 -18.9992 23.4390 -7.7986 7.1250 -0.0000 -0.0000 6.2880 -5.4726 5.6948
10.5449 8.6439 -0.0086 66.5180 85.7820 100.6630 0.0000 0.0000 0.0000 17.2201 49.1096 -82.6504 34.7735 13.6344 138.2078 -4.2439 -38.0620 -4.6535 0.5076 -4.5669 -12.6773 0.0000 0.0000 0.0000 6.4737 -57.6551 -87.3860 -37.2574 -10.2662 150.1570 -0.7903 21.7460 -20.7780 -0.0213 0.9429 -2.5917 -4.0132 1.8903 34.3446 -3.5236 1.4859 7.8599 -2.2043 1.1196 -8.7095 6.0920 3.5544 -22.3492 -6.6508 4.1554 12.6325 -2.6690 1.6165 7.8097 0.0000 -0.0000 0.0000 -51.0858 -61.7137 47.0637 17.5915 -27.6310 -4.3581 -0.0000 0.0000 -33.8503 26.5523 -25.9012 -12.3138 -7.1250 0.0000 -0.0000 -1.9500 1.4987 1.8994 0.0000 -0.0000 0.0000 68.8715 70.3952 30.9281 -13.8692 22.5473 -2.7777 0.0000 -0.0000 -1.6680 -18.6228 23.4448 -7.6363 7.1250 -0.0000 -0.0000 6.5222 -5.5242 5.9033
10.4013 8.6511 -0.0214 72.2073 85.6634 106.8290 0.0000 0.0000 0.0000 15.6136 49.5743 -85.4489 34.8446 13.5567 138.5102 -4.3432 -38.6446 -5.1121 0.6809 -5.2758 -14.6969 0.0000 0.0000 0.0000 8.3093 -58.9818 -90.0460 -37.3168 -10.1637 150.4917 -0.8361 22.8747 -21.6356 -0.0884 1.9182 -5.2796 -3.8572 1.7423 34.1205 -3.5197 1.3797 7.9444 -2.2338 1.0700 -8.5343 6.1571 3.5931 -22.3407 -6.7300 4.1985 12.5227 -2.6998 1.6336 7.7780 -0.0000 -0.0000 0.0000 -50.6418 -62.8776 46.0748 17.4460 -27.4420 -4.2909 -0.0000 0.0000 -33.3912 25.8259 -25.5086 -11.7732 -7.1250 0.0000 -0.0000 -2.3317 2.0717 2.2478 -0.0000 -0.0000 0.0000 67.0821 71.1742 28.3916 -13.8509 22.5212 -2.7708 0.0000 -0.0000 -1.3240 -18.6541 23.6409 -7.7095 7.1250 -0.0000 -0.0000 6.5184 -5.3183 5.9254
10.2613 8.6806 -0.0323 72.1708 85.5403 106.7830 0.0000 0.0000 0.0000 14.5477 49.9873 -86.8416 34.8378 13.5641 138.4814 -4.4139 -38.8790 -5.0795 0.7061 -5.3709 -14.9695 0.0000 0.0000 0.0000 9.3184 -58.9669 -91.5554 -37.3257 -10.1482 150.5421 -0.8250 21.9651 -21.1065 -0.0063 0.5136 -1.4114 -3.9981 1.8245 34.6894 -3.5116 1.4257 8.0114 -2.1845 1.1025 -8.6698 6.0722 3.6156 -22.4870 -6.6574 4.2377 12.6019 -2.6559 1.6520 7.8274 0.0000 0.0000 0.0000 -50.0019 -64.0323 44.9100 17.3266 -27.2863 -4.2360 -0.0000 0.0000 -33.0539 25.3834 -25.3607 -11.4876 -7.1250 0.0000 -0.0000 -2.5790 2.3207 2.4750 0.0000 0.0000 0.0000 64.9845 71.9994 25.8437 -13.7812 22.4211 -2.7441 0.0000 -0.0000 -1.1740 -18.8529 24.0377 -7.9184 7.1250 -0.0000 -0.0000 6.4280 -4.8803 5.8959
10.1272 8.7109 -0.0429 72.6383 85.4615 107.1900 0.0000 0.0000 0.0000 13.4762 50.0546 -88.2224 34.8103 13.5943 138.3640 -4.6014 -39.0881 -4.1618 0.5720 -4.8436 -13.4631 0.0000 0.0000 0.0000 10.1861 -59.1058 -92.7966 -37.3161 -10.1648 150.4878 -0.7775 22.6158 -21.1431 -0.0066 0.5239 -1.4396 -4.0963 1.9028 35.4131 -3.4407 1.4717 7.9763 -2.1185 1.1348 -8.8507 5.8466 3.6319 -22.8081 -6.4859 4.2945 12.8931 -2.5536 1.6766 7.9723 0.0000 0.0000 0.0000 -49.3420 -65.2299 43.5746 17.2471 -27.1823 -4.1996 -0.0000 0.0000 -32.8515 24.5892 -24.8503 -10.8856 -7.1250 0.0000 -0.0000 -2.9947 3.0212 2.8367 0.0000 0.0000 0.0000 62.6759 72.7566 23.1038 -13.7317 22.3498 -2.7252 0.0000 -0.0000 -0.9730 -19.0330 24.4069 -8.1127 7.1250 -0.0000 -0.0000 6.3486 -4.4730 5.8711
9.9794 8.7203 -0.0726 83.3552 85.2036 118.0460 0.0000 0.0000 0.0000 11.6867 49.0521 -91.0913 34.8583 13.5416 138.5689 -4.7435 -39.1392 -3.2160 0.5108 -4.5810 -12.7174 0.0000 0.0000 0.0000 11.5255 -61.3403 -94.9991 -37.3448 -10.1148 150.6507 -0.6761 23.7192 -21.1138 -0.0038 0.3970 -1.0909 -3.4311 1.4045 35.8299 -3.4043 1.0944 8.0282 -2.2962 0.9632 -8.9526 6.5523 3.6761 -22.2168 -7.5665 4.3192 11.7877 -3.0254 1.6392 7.5533 0.0000 0.0000 0.0000 -48.4809 -66.4809 42.1319 17.1700 -27.0813 -4.1644 -0.0000 0.0000 -32.9488 23.5351 -24.1105 -10.0884 -7.1250 0.0000 -0.0000 -3.5504 4.0036 3.3003 0.0000 0.0000 0.0000 60.1046 73.5928 20.1427 -13.6102 22.1748 -2.6792 0.0000 -0.0000 -0.9010 -19.2521 24.6839 -8.2983 7.1250 -0.0000 -0.0000 6.2388 -4.1533 5.8057
9.8384 8.7419 -0.0667 79.7247 85.4958 114.5900 0.0000 0.0000 0.0000 11.1751 50.0863 -92.5379 34.8420 13.5595 138.4993 -5.3164 -40.3311 -1.6489 0.4390 -4.2513 -11.7848 0.0000 0.0000 0.0000 13.3269 -60.2104 -96.6420 -37.3445 -10.1154 150.6488 -0.8635 22.8664 -21.7967 -0.0000 0.0438 -0.1202 -3.6847 1.7075 36.1144 -3.3003 1.3736 8.0237 -2.1674 1.0930 -9.0559 6.5005 3.7039 -22.1536 -7.6755 4.3830 11.5032 -3.0434 1.6618 7.4556 0.0000 0.0000 0.0000 -47.3315 -67.7018 40.5671 17.0915 -26.9783 -4.1288 -0.0000 0.0000 -33.1577 22.4813 -23.2837 -9.2902 -7.1250 0.0000 -0.0000 -4.1110 5.0621 3.7421 0.0000 0.0000 0.0000 57.7186 74.4300 17.0141 -13.4669 21.9675 -2.6254 0.0000 -0.0000 -0.6130 -19.6098 25.1139 -8.5986 7.1250 -0.0000 -0.0000 6.0598 -3.6527 5.6939
9.6794 8.7577 -0.1030 89.8621 85.0377 125.0660 0.0000 0.0000 0.0000 9.2921 48.5798 -95.4135 34.8999 13.4956 138.7468 -5.6012 -40.0873 1.3843 0.1629 -2.6003 -7.1679 0.0000 0.0000 0.0000 15.4554 -61.8234 -99.9449 -37.3831 -10.0473 150.8698 -0.8313 22.6872 -21.5100 -0.0215 -0.9475 2.6045 -2.9891 1.1793 36.3662 -3.2844 0.9783 8.0579 -2.3691 0.9106 -9.1180 6.3204 3.6521 -22.1501 -7.5196 4.3322 11.3261 -2.9672 1.6466 7.3843 -0.0000 -0.0000 0.0000 -46.3538 -68.9033 39.3803 16.9247 -26.7584 -4.0534 -0.0000 0.0000 -32.7403 22.4947 -22.8805 -9.1466 -7.1250 0.0000 -0.0000 -4.0612 5.4827 3.6640 -0.0000 -0.0000 0.0000 54.8070 75.2072 13.0351 -13.3566 21.8074 -2.5842 0.0000 0.0000 0.0140 -19.5678 25.4903 -8.6972 7.1250 -0.0000 -0.0000 6.1213 -3.2731 5.7955
9.5381 8.7788 -0.1074 87.4288 85.2782 122.6150 0.0000 0.0000 0.0000 8.7959 49.7098 -96.4084 34.8749 13.5233 138.6395 -6.2988 -40.8344 5.7461 0.0003 -0.1113 -0.3057 0.0000 0.0000 0.0000 16.5109 -60.7945 -100.9773 -37.3710 -10.0689 150.8000 -0.9419 24.3320 -23.0052 -0.1167 2.2021 -6.0646 -3.1789 1.4343 36.9079 -3.1628 1.2232 8.0823 -2.2487 1.0283 -9.2781 5.6791 3.5509 -22.7082 -6.7805 4.2567 11.8753 -2.6258 1.6353 7.6176 0.0000 0.0000 0.0000 -45.2649 -69.8568 38.5185 16.6910 -26.4486 -3.9487 -0.0000 0.0000 -31.7513 24.1031 -23.2766 -10.0260 -7.1250 0.0000 -0.0000 -3.1042 4.7782 2.8391 0.0000 0.0000 0.0000 51.9825 76.0096 8.9882 -13.2078 21.5910 -2.5292 0.0000 0.0000 0.8500 -19.0149 25.5774 -8.4625 7.1250 -0.0000 -0.0000 6.4653 -3.2762 6.1250
9.3982 8.7948 -0.1150 89.4569 85.1957 124.6790 0.0000 0.0000 0.0000 7.7564 49.8330 -98.0078 34.8818 13.5156 138.6693 -6.5997 -41.4040 6.7379 0.0000 0.0138 0.0378 0.0000 0.0000 0.0000 18.0846 -61.2383 -102.7641 -37.3669 -10.0760 150.7768 -0.9225 26.5526 -24.0724 -0.2048 2.9136 -8.0384 -3.1264 1.4031 37.2870 -3.0573 1.2143 8.1239 -2.1694 1.0285 -9.3657 6.3016 3.6508 -21.9764 -7.8045 4.3656 10.6630 -3.0514 1.6484 7.1482 0.0000 -0.0000 0.0000 -44.2659 -70.8134 37.3219 16.4900 -26.1806 -3.8596 -0.0000 0.0000 -30.9658 25.2562 -23.7133 -10.7427 -7.1250 0.0000 -0.0000 -2.4439 4.0955 2.2652 0.0000 -0.0000 0.0000 48.5836 76.8373 4.5954 -12.9862 21.2671 -2.4483 0.0000 0.0000 1.6390 -18.4602 25.5440 -8.1912 7.1250 -0.0000 -0.0000 6.7990 -3.4010 6.4298
9.2388 8.8061 -0.1421 91.3359 84.9951 126.7020 0.0000 0.0000 0.0000 5.8825 49.4793 -100.5257 34.9529 13.4366 138.9743 -6.4742 -41.8458 3.6889 0.1526 -2.5175 -6.9382 0.0000 0.0000 0.0000 19.5708 -61.1554 -105.1432 -37.3865 -10.0414 150.8892 -0.8711 27.6491 -24.4064 -0.2426 3.1697 -8.7516 -2.7735 1.2023 37.7146 -3.1113 1.0809 8.1002 -2.3712 0.9684 -9.5442 5.6916 3.5954 -22.6304 -7.1766 4.3707 11.4260 -2.7434 1.6599 7.4751 0.0000 0.0000 0.0000 -42.9877 -71.8850 35.6036 16.3032 -25.9301 -3.7776 -0.0000 0.0000 -30.5451 25.3241 -23.8089 -10.8149 -7.1250 0.0000 -0.0000 -2.4140 3.9804 2.2427 0.0000 0.0000 0.0000 44.5073 77.6247 -0.4518 -12.7230 20.8800 -2.3536 0.0000 0.0000 2.2160 -18.0878 25.6288 -8.0412 7.1250 -0.0000 -0.0000 7.0325 -3.3745 6.6575
9.0740 8.7956 -0.1704 94.8478 85.0331 130.7260 0.0000 0.0000 0.0000 3.9254 49.5692 -103.9845 35.0648 13.3105 139.4578 -6.3791 -42.0687 2.1038 0.4131 -4.1256 -11.4302 0.0000 0.0000 0.0000 21.9494 -60.9399 -108.2368 -37.4328 -9.9591 151.1556 -0.7984 28.3977 -24.4551 -0.2155 2.9887 -8.2474 -2.3580 1.0405 37.3681 -2.9958 1.0661 8.2006 -2.4475 0.9528 -9.3144 6.7907 3.6935 -21.7419 -8.6083 4.3874 9.8258 -3.3911 1.6252 6.8726 -0.0000 0.0000 0.0000 -41.4718 -73.1219 33.3124 16.0202 -25.5481 -3.6547 -0.0000 0.0000 -29.9269 24.9415 -23.5202 -10.5142 -7.1250 0.0000 -0.0000 -2.6143 4.3618 2.4105 -0.0000 0.0000 0.0000 39.3190 78.4888 -6.5992 -12.4193 20.4304 -2.2465 0.0000 0.0000 2.7710 -17.9090 25.7412 -7.9894 7.1250 -0.0000 -0.0000 7.1507 -3.2886 6.7826
8.9326 8.8171 -0.1704 91.0370 85.4451 126.2380 0.0000 0.0000 0.0000 3.6590 50.9998 -104.2043 35.0233 13.3575 139.2782 -6.7567 -43.1114 1.9725 0.4700 -4.3972 -12.1970 0.0000 0.0000 0.0000 21.5888 -59.9466 -107.2997 -37.3943 -10.0276 150.9338 -0.8842 28.6200 -25.0246 -0.2100 2.9503 -8.1404 -2.6270 1.3862 38.6451 -2.8718 1.3871 8.2406 -2.3352 1.1146 -9.6992 6.0431 3.6389 -22.5992 -7.7756 4.4070 10.9044 -2.9933 1.6452 7.3251 0.0000 -0.0000 0.0000 -40.1745 -74.2375 31.0060 15.7039 -25.1175 -3.5193 -0.0000 0.0000 -29.1544 23.9343 -22.8847 -9.7931 -7.1250 0.0000 -0.0000 -3.1649 5.2239 2.8680 0.0000 -0.0000 0.0000 34.5394 79.2480 -12.6207 -12.1085 19.9672 -2.1392 0.0000 0.0000 3.6830 -17.6994 25.6807 -7.8738 7.1250 -0.0000 -0.0000 7.2725 -3.3834 6.8872
